# Blender v2.92.0 OBJ File: ''
# www.blender.org
mtllib fence.mtl
o Cube.001
v 0.035969 0.291213 -4.256291
v 1.208612 0.291213 -4.256291
v 1.208612 0.986885 -4.256291
v 0.035969 0.986885 -4.256291
v 2.561873 0.986885 -4.241828
v 2.489163 0.986885 -4.256291
v 2.489163 0.291213 -4.256291
v 2.561873 0.291213 -4.241828
v 2.623513 0.986885 -4.200642
v 2.623513 0.291213 -4.200642
v 2.664700 0.986885 -4.139001
v 2.664700 0.291213 -4.139001
v 2.679163 0.986885 -4.066291
v 2.679163 0.291213 -4.066291
v 2.679163 0.986884 -1.424831
v 2.679163 0.986884 -2.641460
v 2.679163 0.291212 -2.641460
v 2.679163 0.291212 -1.424831
v 2.679163 0.291212 -1.352892
v 2.679163 0.291212 -0.035969
v 2.679163 0.986884 -0.035969
v 2.679163 0.986884 -1.352892
v 2.679163 0.291212 -2.713398
v 2.679163 0.986884 -2.713398
v 1.280551 0.291213 -4.256291
v 1.280551 0.986885 -4.256291
v -0.035969 0.291213 -4.256291
v -0.035969 0.986885 -4.256291
v -1.208612 0.986885 -4.256291
v -1.208612 0.291213 -4.256291
v -2.561873 0.986885 -4.241828
v -2.561873 0.291213 -4.241828
v -2.489163 0.291213 -4.256291
v -2.489163 0.986885 -4.256291
v -2.623513 0.986885 -4.200642
v -2.623513 0.291213 -4.200642
v -2.664700 0.986885 -4.139001
v -2.664700 0.291213 -4.139001
v -2.679163 0.986885 -4.066291
v -2.679163 0.291213 -4.066291
v -2.679163 0.986884 -1.424831
v -2.679163 0.291212 -1.424831
v -2.679163 0.291212 -2.641460
v -2.679163 0.986884 -2.641460
v -2.679163 0.291212 -1.352892
v -2.679163 0.986884 -1.352892
v -2.679163 0.986884 -0.035969
v -2.679163 0.291212 -0.035969
v -2.679163 0.986884 -2.713398
v -2.679163 0.291212 -2.713398
v -1.280551 0.291213 -4.256291
v -1.280551 0.986885 -4.256291
v 0.035969 0.291211 4.256291
v 0.035969 0.986883 4.256291
v 1.208612 0.986883 4.256291
v 1.208612 0.291211 4.256291
v 2.561873 0.986883 4.241828
v 2.561873 0.291211 4.241828
v 2.489163 0.291211 4.256291
v 2.489163 0.986883 4.256291
v 2.623513 0.986883 4.200642
v 2.623513 0.291211 4.200642
v 2.664700 0.986883 4.139001
v 2.664700 0.291211 4.139001
v 2.679163 0.986883 4.066291
v 2.679163 0.291211 4.066291
v 2.679163 0.986884 1.424831
v 2.679163 0.291212 1.424831
v 2.679163 0.291212 2.641460
v 2.679163 0.986884 2.641460
v 2.679163 0.291212 1.352892
v 2.679163 0.986884 1.352892
v 2.679163 0.986884 0.035969
v 2.679163 0.291212 0.035969
v 2.679163 0.986884 2.713398
v 2.679163 0.291212 2.713398
v 1.280551 0.291211 4.256291
v 1.280551 0.986883 4.256291
v -0.035969 0.291211 4.256291
v -1.208612 0.291211 4.256291
v -1.208612 0.986883 4.256291
v -0.035969 0.986883 4.256291
v -2.561873 0.986883 4.241828
v -2.489163 0.986883 4.256291
v -2.489163 0.291211 4.256291
v -2.561873 0.291211 4.241828
v -2.623513 0.986883 4.200642
v -2.623513 0.291211 4.200642
v -2.664700 0.986883 4.139001
v -2.664700 0.291211 4.139001
v -2.679163 0.986883 4.066291
v -2.679163 0.291211 4.066291
v -2.679163 0.986884 1.424831
v -2.679163 0.986884 2.641460
v -2.679163 0.291212 2.641460
v -2.679163 0.291212 1.424831
v -2.679163 0.291212 1.352892
v -2.679163 0.291212 0.035969
v -2.679163 0.986884 0.035969
v -2.679163 0.986884 1.352892
v -2.679163 0.291212 2.713398
v -2.679163 0.986884 2.713398
v -1.280551 0.291211 4.256291
v -1.280551 0.986883 4.256291
v -2.637687 0.986884 -0.035969
v -2.637687 0.986884 0.035969
v -2.637687 0.291212 0.035969
v -2.637687 0.291212 -0.035969
v 2.637687 0.291212 -1.424831
v 2.637687 0.986884 -1.424831
v 2.637687 0.986884 -1.352892
v 2.637687 0.291212 -1.352892
v 1.208612 0.291213 -4.214815
v 1.208612 0.986885 -4.214815
v 1.280551 0.986885 -4.214815
v 1.280551 0.291213 -4.214815
v 2.637687 0.291212 -2.713398
v 2.637687 0.291212 -2.641460
v 2.637687 0.986884 -2.641460
v 2.637687 0.986884 -2.713398
v 2.637687 0.291212 -0.035969
v 2.637687 0.986884 -0.035969
v 0.035969 0.986885 -4.214815
v 0.035969 0.291213 -4.214815
v -0.035969 0.986885 -4.214815
v -0.035969 0.291213 -4.214815
v -2.637687 0.986884 -1.424831
v -2.637687 0.291212 -1.424831
v -2.637687 0.291212 -1.352892
v -2.637687 0.986884 -1.352892
v -1.208612 0.986885 -4.214815
v -1.208612 0.291213 -4.214815
v -1.280551 0.291213 -4.214815
v -1.280551 0.986885 -4.214815
v -2.637687 0.291212 -2.713398
v -2.637687 0.986884 -2.713398
v -2.637687 0.986884 -2.641460
v -2.637687 0.291212 -2.641460
v 2.637687 0.986884 1.424831
v 2.637687 0.291212 1.424831
v 2.637687 0.291212 1.352892
v 2.637687 0.986884 1.352892
v 1.208612 0.986883 4.214815
v 1.208612 0.291211 4.214815
v 1.280551 0.291211 4.214815
v 1.280551 0.986883 4.214815
v 2.637687 0.291212 2.713398
v 2.637687 0.986884 2.713398
v 2.637687 0.986884 2.641460
v 2.637687 0.291212 2.641460
v 2.637687 0.986884 0.035969
v 2.637687 0.291212 0.035969
v 0.035969 0.291211 4.214815
v 0.035969 0.986883 4.214815
v -2.637687 0.291212 1.424831
v -2.637687 0.986884 1.424831
v -2.637687 0.986884 1.352892
v -2.637687 0.291212 1.352892
v -1.208612 0.291211 4.214815
v -1.208612 0.986883 4.214815
v -1.280551 0.986883 4.214815
v -1.280551 0.291211 4.214815
v -2.637687 0.291212 2.713398
v -2.637687 0.291212 2.641460
v -2.637687 0.986884 2.641460
v -2.637687 0.986884 2.713398
v -0.035969 0.986883 4.214815
v -0.035969 0.291211 4.214815
vt -8.701923 -0.491336
vt -5.116926 -0.491336
vt -5.133982 1.555265
vt -8.740220 1.555265
vt -2.817478 1.555265
vt -2.982919 1.555265
vt -2.973846 -0.491336
vt -2.808929 -0.491336
vt -2.604951 1.555265
vt -2.597008 -0.491336
vt -2.375818 1.555265
vt -2.368477 -0.491336
vt -2.161755 1.555265
vt -2.154942 -0.491336
vt 4.755485 1.555265
vt 1.246959 1.555265
vt 1.243553 -0.491336
vt 4.740814 -0.491336
vt -2.524960 -0.550570
vt 1.654411 -0.550570
vt 1.721515 1.496031
vt -2.494509 1.496031
vt 1.754876 -0.491336
vt 1.758400 1.555265
vt -5.648279 -0.491336
vt -5.668320 1.555265
vt -8.701923 -0.491336
vt -8.740220 1.555265
vt -5.133982 1.555265
vt -5.116926 -0.491336
vt -2.817478 1.555265
vt -2.808929 -0.491336
vt -2.973846 -0.491336
vt -2.982919 1.555265
vt -2.604951 1.555265
vt -2.597008 -0.491336
vt -2.375818 1.555265
vt -2.368477 -0.491336
vt -2.161755 1.555265
vt -2.154942 -0.491336
vt 4.755485 1.555265
vt 4.740814 -0.491336
vt 1.243553 -0.491336
vt 1.246959 1.555265
vt -2.524960 -0.550570
vt -2.494509 1.496031
vt 1.721515 1.496031
vt 1.654411 -0.550570
vt 1.758400 1.555265
vt 1.754876 -0.491336
vt -5.648279 -0.491336
vt -5.668320 1.555265
vt -8.701923 -0.491336
vt -8.740220 1.555265
vt -5.133982 1.555265
vt -5.116926 -0.491336
vt -2.817478 1.555265
vt -2.808929 -0.491336
vt -2.973846 -0.491336
vt -2.982919 1.555265
vt -2.604951 1.555265
vt -2.597008 -0.491336
vt -2.375818 1.555265
vt -2.368477 -0.491336
vt -2.161755 1.555265
vt -2.154942 -0.491336
vt 4.755485 1.555265
vt 4.740814 -0.491336
vt 1.243553 -0.491336
vt 1.246959 1.555265
vt -2.524960 -0.550570
vt -2.494509 1.496031
vt 1.721515 1.496031
vt 1.654411 -0.550570
vt 1.758400 1.555265
vt 1.754876 -0.491336
vt -5.648279 -0.491336
vt -5.668320 1.555265
vt -8.701923 -0.491336
vt -5.116926 -0.491336
vt -5.133982 1.555265
vt -8.740220 1.555265
vt -2.817478 1.555265
vt -2.982919 1.555265
vt -2.973846 -0.491336
vt -2.808929 -0.491336
vt -2.604951 1.555265
vt -2.597008 -0.491336
vt -2.375818 1.555265
vt -2.368477 -0.491336
vt -2.161755 1.555265
vt -2.154942 -0.491336
vt 4.755485 1.555265
vt 1.246959 1.555265
vt 1.243553 -0.491336
vt 4.740814 -0.491336
vt -2.524960 -0.550570
vt 1.654411 -0.550570
vt 1.721515 1.496031
vt -2.494509 1.496031
vt 1.754876 -0.491336
vt 1.758400 1.555265
vt -5.648279 -0.491336
vt -5.668320 1.555265
vt 0.312500 0.902709
vt 0.312500 0.902709
vt 0.312500 0.902709
vt 0.312500 0.902709
vt 0.312500 0.902709
vt 0.312500 0.902709
vt 0.312500 0.902709
vt 0.312500 0.902709
vt 0.312500 0.902709
vt 0.312500 0.902709
vt 0.312500 0.902709
vt 0.312500 0.902709
vt 0.312500 0.902709
vt 0.312500 0.902709
vt 0.312500 0.902709
vt 0.312500 0.902709
vt 0.312500 0.902709
vt 0.312500 0.902709
vt 0.312500 0.902709
vt 0.312500 0.902709
vt 0.312500 0.902709
vt 0.312500 0.902709
vt 0.312500 0.902709
vt 0.312500 0.902709
vt 0.312500 0.902709
vt 0.312500 0.902709
vt 0.312500 0.902709
vt 0.312500 0.902709
vt 0.312500 0.902709
vt 0.312500 0.902709
vt 0.312500 0.902709
vt 0.312500 0.902709
vt 0.312500 0.902709
vt 0.312500 0.902709
vt 0.312500 0.902709
vt 0.312500 0.902709
vt 0.312500 0.902709
vt 0.312500 0.902709
vt 0.312500 0.902709
vt 0.312500 0.902709
vt 0.312500 0.902709
vt 0.312500 0.902709
vt 0.312500 0.902709
vt 0.312500 0.902709
vt 0.312500 0.902709
vt 0.312500 0.902709
vt 0.312500 0.902709
vt 0.312500 0.902709
vt 0.312500 0.902709
vt 0.312500 0.902709
vt 0.312500 0.902709
vt 0.312500 0.902709
vt 0.312500 0.902709
vt 0.312500 0.902709
vt 0.312500 0.902709
vt 0.312500 0.902709
vt 0.312500 0.902709
vt 0.312500 0.902709
vt 0.312500 0.902709
vt 0.312500 0.902709
vt 0.312500 0.902709
vt 0.312500 0.902709
vt 0.312500 0.902709
vt 0.312500 0.902709
vt 0.312500 0.902709
vt 0.312500 0.902709
vt 0.312500 0.902709
vt 0.312500 0.902709
vt 0.312500 0.902709
vt 0.312500 0.902709
vt 0.312500 0.902709
vt 0.312500 0.902709
vt 0.312500 0.902709
vt 0.312500 0.902709
vt 0.312500 0.902709
vt 0.312500 0.902709
vt 0.312500 0.902709
vt 0.312500 0.902709
vt 0.312500 0.902709
vt 0.312500 0.902709
vt 0.312500 0.902709
vt 0.312500 0.902709
vt 0.312500 0.902709
vt 0.312500 0.902709
vt 0.312500 0.902709
vt 0.312500 0.902709
vt 0.312500 0.902709
vt 0.312500 0.902709
vt 0.312500 0.902709
vt 0.312500 0.902709
vt 0.312500 0.902709
vt 0.312500 0.902709
vt 0.312500 0.902709
vt 0.312500 0.902709
vt 0.312500 0.902709
vt 0.312500 0.902709
vt 0.312500 0.902709
vt 0.312500 0.902709
vt 0.312500 0.902709
vt 0.312500 0.902709
vt 0.312500 0.902709
vt 0.312500 0.902709
vt 0.312500 0.902709
vt 0.312500 0.902709
vt 0.312500 0.902709
vt 0.312500 0.902709
vt 0.312500 0.902709
vt 0.312500 0.902709
vt 0.312500 0.902709
vt 0.312500 0.902709
vt 0.312500 0.902709
vt 0.312500 0.902709
vt 0.312500 0.902709
vt 0.312500 0.902709
vt 0.312500 0.902709
vt 0.312500 0.902709
vt 0.312500 0.902709
vt 0.312500 0.902709
vt 0.312500 0.902709
vt 0.312500 0.902709
vt 0.312500 0.902709
vt 0.312500 0.902709
vt 0.312500 0.902709
vt 0.312500 0.902709
vt 0.312500 0.902709
vt 0.312500 0.902709
vt 0.312500 0.902709
vt 0.312500 0.902709
vn 0.0000 0.0000 1.0000
vn -0.3827 0.0000 0.9239
vn -0.0980 0.0000 0.9952
vn -0.7071 0.0000 0.7071
vn -0.9239 0.0000 0.3827
vn -0.9952 0.0000 0.0980
vn -1.0000 0.0000 0.0000
vn 0.3827 0.0000 0.9239
vn 0.0980 0.0000 0.9952
vn 0.7071 0.0000 0.7071
vn 0.9239 0.0000 0.3827
vn 0.9952 0.0000 0.0980
vn 1.0000 -0.0000 0.0000
vn 0.0000 0.0000 -1.0000
vn -0.3827 0.0000 -0.9239
vn -0.0980 0.0000 -0.9952
vn -0.7071 0.0000 -0.7071
vn -0.9239 0.0000 -0.3827
vn -0.9952 0.0000 -0.0980
vn 0.3827 0.0000 -0.9239
vn 0.0980 0.0000 -0.9952
vn 0.7071 0.0000 -0.7071
vn 0.9239 0.0000 -0.3827
vn 0.9952 0.0000 -0.0980
usemtl None
s 1
f 1/1/1 2/2/1 3/3/1 4/4/1
f 5/5/2 6/6/3 7/7/3 8/8/2
f 9/9/4 5/5/2 8/8/2 10/10/4
f 11/11/5 9/9/4 10/10/4 12/12/5
f 13/13/6 11/11/5 12/12/5 14/14/6
f 15/15/7 16/16/7 17/17/7 18/18/7
f 19/19/7 20/20/7 21/21/7 22/22/7
f 14/14/6 23/23/7 24/24/7 13/13/6
f 25/25/1 7/7/3 6/6/3 26/26/1
f 27/27/1 28/28/1 29/29/1 30/30/1
f 31/31/8 32/32/8 33/33/9 34/34/9
f 35/35/10 36/36/10 32/32/8 31/31/8
f 37/37/11 38/38/11 36/36/10 35/35/10
f 39/39/12 40/40/12 38/38/11 37/37/11
f 41/41/13 42/42/13 43/43/13 44/44/13
f 45/45/13 46/46/13 47/47/13 48/48/13
f 40/40/12 39/39/12 49/49/13 50/50/13
f 51/51/1 52/52/1 34/34/9 33/33/9
f 53/53/14 54/54/14 55/55/14 56/56/14
f 57/57/15 58/58/15 59/59/16 60/60/16
f 61/61/17 62/62/17 58/58/15 57/57/15
f 63/63/18 64/64/18 62/62/17 61/61/17
f 65/65/19 66/66/19 64/64/18 63/63/18
f 67/67/7 68/68/7 69/69/7 70/70/7
f 71/71/7 72/72/7 73/73/7 74/74/7
f 66/66/19 65/65/19 75/75/7 76/76/7
f 77/77/14 78/78/14 60/60/16 59/59/16
f 79/79/14 80/80/14 81/81/14 82/82/14
f 83/83/20 84/84/21 85/85/21 86/86/20
f 87/87/22 83/83/20 86/86/20 88/88/22
f 89/89/23 87/87/22 88/88/22 90/90/23
f 91/91/24 89/89/23 90/90/23 92/92/24
f 93/93/13 94/94/13 95/95/13 96/96/13
f 97/97/13 98/98/13 99/99/13 100/100/13
f 92/92/24 101/101/13 102/102/13 91/91/24
f 103/103/14 85/85/21 84/84/21 104/104/14
f 105/105/13 106/106/13 107/107/13 108/108/13
f 18/109/14 109/110/14 110/111/14 15/112/14
f 22/113/1 111/114/1 112/115/1 19/116/1
f 2/117/7 113/118/7 114/119/7 3/120/7
f 26/121/13 115/122/13 116/123/13 25/124/13
f 115/122/1 114/119/1 113/118/1 116/123/1
f 111/114/7 110/111/7 109/110/7 112/115/7
f 117/125/7 118/126/7 119/127/7 120/128/7
f 23/129/14 117/125/14 120/128/14 24/130/14
f 16/131/1 119/127/1 118/126/1 17/132/1
f 20/133/14 121/134/14 122/135/14 21/136/14
f 4/137/13 123/138/13 124/139/13 1/140/13
f 125/141/1 126/142/1 124/139/1 123/138/1
f 42/143/14 41/144/14 127/145/14 128/146/14
f 46/147/1 45/148/1 129/149/1 130/150/1
f 30/151/13 29/152/13 131/153/13 132/154/13
f 52/155/7 51/156/7 133/157/7 134/158/7
f 134/158/1 133/157/1 132/154/1 131/153/1
f 130/150/13 129/149/13 128/146/13 127/145/13
f 135/159/13 136/160/13 137/161/13 138/162/13
f 50/163/14 49/164/14 136/160/14 135/159/14
f 44/165/1 43/166/1 138/162/1 137/161/1
f 48/167/14 47/168/14 105/105/14 108/108/14
f 28/169/7 27/170/7 126/142/7 125/141/7
f 68/171/1 67/172/1 139/173/1 140/174/1
f 72/175/14 71/176/14 141/177/14 142/178/14
f 56/179/7 55/180/7 143/181/7 144/182/7
f 78/183/13 77/184/13 145/185/13 146/186/13
f 146/186/14 145/185/14 144/182/14 143/181/14
f 142/178/7 141/177/7 140/174/7 139/173/7
f 147/187/7 148/188/7 149/189/7 150/190/7
f 76/191/1 75/192/1 148/188/1 147/187/1
f 70/193/14 69/194/14 150/190/14 149/189/14
f 74/195/1 73/196/1 151/197/1 152/198/1
f 54/199/13 53/200/13 153/201/13 154/202/13
f 121/134/7 152/198/7 151/197/7 122/135/7
f 96/203/1 155/204/1 156/205/1 93/206/1
f 100/207/14 157/208/14 158/209/14 97/210/14
f 80/211/13 159/212/13 160/213/13 81/214/13
f 104/215/7 161/216/7 162/217/7 103/218/7
f 161/216/14 160/213/14 159/212/14 162/217/14
f 157/208/13 156/205/13 155/204/13 158/209/13
f 163/219/13 164/220/13 165/221/13 166/222/13
f 101/223/1 163/219/1 166/222/1 102/224/1
f 94/225/14 165/221/14 164/220/14 95/226/14
f 98/227/1 107/107/1 106/106/1 99/228/1
f 82/229/7 167/230/7 168/231/7 79/232/7
f 167/230/14 154/202/14 153/201/14 168/231/14
