# Blender v2.92.0 OBJ File: ''
# www.blender.org
mtllib rightPanel.mtl
o Tennis-court-blue.002
v -2.395152 3.687319 -1.728350
v -2.395152 3.687320 -3.936137
v -2.395152 2.886981 -3.936137
v -2.395152 3.687319 -1.728350
v -2.395152 3.687320 -3.936137
v -2.395152 2.886981 -3.936137
v -2.395152 2.886980 -1.728351
v -2.312875 3.687319 -1.728350
v -2.312875 3.687320 -3.936137
v -2.312875 2.886981 -3.936137
v -2.312875 2.886980 -1.728351
vt 0.480000 0.846667
vt 0.480000 0.846667
vt 0.480000 0.846667
vt 0.480000 0.846667
vt 0.640000 0.844444
vt 0.640000 0.844444
vt 0.640000 0.844444
vt 0.640000 0.844444
vt 0.482098 0.853415
vt 0.482098 0.853415
vt 0.482098 0.853415
vt 0.482098 0.853415
vt 0.482098 0.853415
vt 0.482098 0.853415
vt 0.000000 0.000000
vt 1.000000 0.000000
vt 1.000000 1.000000
vt 0.000000 1.000000
vn 0.0000 1.0000 0.0000
vn 0.0000 0.0000 -1.0000
vn 0.0000 -0.0000 1.0000
vn 0.0000 -1.0000 -0.0000
vn 1.0000 -0.0000 0.0000
usemtl None
s off
f 5/1/1 4/2/1 8/3/1 9/4/1
f 6/5/2 5/6/2 9/7/2 10/8/2
f 4/9/3 7/10/3 11/11/3 8/12/3
f 7/10/4 6/13/4 10/14/4 11/11/4
f 11/15/5 10/16/5 9/17/5 8/18/5
l 1 2
